<svg xmlns="http://www.w3.org/2000/svg" width="30" height="21" viewBox="0 0 30 21">
  <g id="Burger-menu" transform="translate(1.5 1.5)">
    <path id="Tracé_3228" data-name="Tracé 3228" d="M31.5,19.5H4.5a1.5,1.5,0,0,1,0-3h27a1.5,1.5,0,0,1,0,3Z" transform="translate(-4.5 -9)" fill="#099"/>
    <path id="Tracé_3229" data-name="Tracé 3229" d="M31.5,10.5H4.5a1.5,1.5,0,0,1,0-3h27a1.5,1.5,0,0,1,0,3Z" transform="translate(-4.5 -9)" fill="#099"/>
    <path id="Tracé_3230" data-name="Tracé 3230" d="M31.5,28.5H4.5a1.5,1.5,0,0,1,0-3h27a1.5,1.5,0,0,1,0,3Z" transform="translate(-4.5 -9)" fill="#099"/>
  </g>
</svg>
