<svg xmlns="http://www.w3.org/2000/svg" width="30" height="30" viewBox="0 0 30 30">
  <g id="Icon_feather-music" data-name="Icon feather-music" transform="translate(-3 -3)">
    <path id="Tracé_3244" data-name="Tracé 3244" d="M13.5,28.5A1.5,1.5,0,0,1,12,27V7.5a1.5,1.5,0,0,1,1.253-1.48l18-3A1.5,1.5,0,0,1,33,4.5V24a1.5,1.5,0,0,1-3,0V6.271l-15,2.5V27A1.5,1.5,0,0,1,13.5,28.5Z" fill="#d56457"/>
    <path id="Tracé_3245" data-name="Tracé 3245" d="M9,21a6,6,0,1,1-6,6A6.007,6.007,0,0,1,9,21Zm0,9a3,3,0,1,0-3-3A3,3,0,0,0,9,30Z" fill="#d56457"/>
    <path id="Tracé_3246" data-name="Tracé 3246" d="M27,18a6,6,0,1,1-6,6A6.007,6.007,0,0,1,27,18Zm0,9a3,3,0,1,0-3-3A3,3,0,0,0,27,27Z" fill="#d56457"/>
  </g>
</svg>
