<svg xmlns="http://www.w3.org/2000/svg" width="28.281" height="28.253" viewBox="0 0 28.281 28.253">
  <g id="Icon_feather-link" data-name="Icon feather-link" transform="translate(-1.493 -1.511)">
    <path id="Tracé_3226" data-name="Tracé 3226" d="M20.06,20.932q-.279,0-.56-.02A7.812,7.812,0,0,1,13.8,17.8,1.5,1.5,0,0,1,16.2,16a4.817,4.817,0,0,0,7.264.52l3.79-3.79a4.817,4.817,0,1,0-6.812-6.812L18.269,8.082a1.5,1.5,0,1,1-2.116-2.127l2.172-2.161A7.817,7.817,0,0,1,29.377,14.852l-3.79,3.79A7.812,7.812,0,0,1,20.06,20.932Z" transform="translate(-1.894)" fill="#fff"/>
    <path id="Tracé_3227" data-name="Tracé 3227" d="M9.31,31.417A7.816,7.816,0,0,1,3.783,18.073l3.79-3.79a7.817,7.817,0,0,1,11.788.844,1.5,1.5,0,0,1-2.4,1.8,4.817,4.817,0,0,0-7.264-.52L5.9,20.194a4.817,4.817,0,1,0,6.812,6.812l2.159-2.161A1.5,1.5,0,0,1,17,26.966l-2.16,2.161A7.766,7.766,0,0,1,9.31,31.417Z" transform="translate(0 -1.654)" fill="#fff"/>
  </g>
</svg>
