<svg xmlns="http://www.w3.org/2000/svg" width="30" height="33" viewBox="0 0 30 33">
  <g id="Icon_feather-home" data-name="Icon feather-home" transform="translate(-3 -1.5)">
    <path id="Tracé_3239" data-name="Tracé 3239" d="M18,1.5a1.5,1.5,0,0,1,.921.316l13.5,10.5A1.5,1.5,0,0,1,33,13.5V30a4.505,4.505,0,0,1-4.5,4.5H7.5A4.505,4.505,0,0,1,3,30V13.5a1.5,1.5,0,0,1,.579-1.184l13.5-10.5A1.5,1.5,0,0,1,18,1.5ZM30,14.234,18,4.9,6,14.234V30a1.5,1.5,0,0,0,1.5,1.5h21A1.5,1.5,0,0,0,30,30Z" fill="#d56457"/>
    <path id="Tracé_3240" data-name="Tracé 3240" d="M22.5,34.5A1.5,1.5,0,0,1,21,33V19.5H15V33a1.5,1.5,0,0,1-3,0V18a1.5,1.5,0,0,1,1.5-1.5h9A1.5,1.5,0,0,1,24,18V33A1.5,1.5,0,0,1,22.5,34.5Z" fill="#d56457"/>
  </g>
</svg>
