<svg xmlns="http://www.w3.org/2000/svg" width="33" height="33" viewBox="0 0 33 33">
  <g id="Icon_feather-printer" data-name="Icon feather-printer" transform="translate(-1.5 -1.5)">
    <path id="Tracé_3223" data-name="Tracé 3223" d="M27,15a1.5,1.5,0,0,1-1.5-1.5v-9h-15v9a1.5,1.5,0,0,1-3,0V3A1.5,1.5,0,0,1,9,1.5H27A1.5,1.5,0,0,1,28.5,3V13.5A1.5,1.5,0,0,1,27,15Z" fill="#d5d5d5"/>
    <path id="Tracé_3224" data-name="Tracé 3224" d="M30,28.5H27a1.5,1.5,0,0,1,0-3h3A1.5,1.5,0,0,0,31.5,24V16.5A1.5,1.5,0,0,0,30,15H6a1.5,1.5,0,0,0-1.5,1.5V24A1.5,1.5,0,0,0,6,25.5H9a1.5,1.5,0,0,1,0,3H6A4.505,4.505,0,0,1,1.5,24V16.5A4.505,4.505,0,0,1,6,12H30a4.505,4.505,0,0,1,4.5,4.5V24A4.505,4.505,0,0,1,30,28.5Z" fill="#d5d5d5"/>
    <path id="Tracé_3225" data-name="Tracé 3225" d="M9,19.5H27A1.5,1.5,0,0,1,28.5,21V33A1.5,1.5,0,0,1,27,34.5H9A1.5,1.5,0,0,1,7.5,33V21A1.5,1.5,0,0,1,9,19.5Zm16.5,3h-15v9h15Z" fill="#d5d5d5"/>
  </g>
</svg>
