<svg xmlns="http://www.w3.org/2000/svg" width="30" height="33.117" viewBox="0 0 30 33.117">
  <g id="Icon_feather-box" data-name="Icon feather-box" transform="translate(-3 -1.503)">
    <path id="Tracé_3241" data-name="Tracé 3241" d="M18,34.5a4.506,4.506,0,0,1-2.248-.6l-10.5-6-.006,0A4.513,4.513,0,0,1,3,24V12A4.514,4.514,0,0,1,5.25,8.106l.006,0,10.5-6a4.5,4.5,0,0,1,4.5,0l10.5,6,.006,0A4.513,4.513,0,0,1,33,12V24a4.514,4.514,0,0,1-2.25,3.894l-.006,0-10.5,6A4.506,4.506,0,0,1,18,34.5ZM6.748,25.3l10.5,6,.006,0a1.5,1.5,0,0,0,1.5,0l.006,0,10.5-6A1.5,1.5,0,0,0,30,24V12a1.5,1.5,0,0,0-.748-1.3l-10.5-6-.006,0a1.5,1.5,0,0,0-1.5,0l-.006,0-10.5,6A1.5,1.5,0,0,0,6,12V24A1.5,1.5,0,0,0,6.748,25.3Z" fill="#d56457"/>
    <path id="Tracé_3242" data-name="Tracé 3242" d="M18,19.515a1.5,1.5,0,0,1-.751-.2L4.154,11.738a1.5,1.5,0,1,1,1.5-2.6L18,16.282,30.344,9.142a1.5,1.5,0,1,1,1.5,2.6L18.751,19.313A1.5,1.5,0,0,1,18,19.515Z" fill="#d56457"/>
    <path id="Tracé_3243" data-name="Tracé 3243" d="M18,34.62a1.5,1.5,0,0,1-1.5-1.5V18a1.5,1.5,0,0,1,3,0V33.12A1.5,1.5,0,0,1,18,34.62Z" fill="#d56457"/>
  </g>
</svg>
