<svg xmlns="http://www.w3.org/2000/svg" width="36" height="30" viewBox="0 0 36 30">
  <g id="Icon_feather-users" data-name="Icon feather-users" transform="translate(0 -3)">
    <path id="Tracé_3233" data-name="Tracé 3233" d="M25.5,33A1.5,1.5,0,0,1,24,31.5v-3A4.505,4.505,0,0,0,19.5,24H7.5A4.5,4.5,0,0,0,3,28.5v3a1.5,1.5,0,0,1-3,0v-3A7.5,7.5,0,0,1,7.5,21h12A7.509,7.509,0,0,1,27,28.5v3A1.5,1.5,0,0,1,25.5,33Z" fill="#d56457"/>
    <path id="Tracé_3234" data-name="Tracé 3234" d="M13.5,3A7.5,7.5,0,1,1,6,10.5,7.508,7.508,0,0,1,13.5,3Zm0,12A4.5,4.5,0,1,0,9,10.5,4.505,4.505,0,0,0,13.5,15Z" fill="#d56457"/>
    <path id="Tracé_3235" data-name="Tracé 3235" d="M34.5,33A1.5,1.5,0,0,1,33,31.5v-3a4.5,4.5,0,0,0-3.375-4.353,1.5,1.5,0,1,1,.75-2.9A7.5,7.5,0,0,1,36,28.5v3A1.5,1.5,0,0,1,34.5,33Z" fill="#d56457"/>
    <path id="Tracé_3236" data-name="Tracé 3236" d="M24,17.82a1.5,1.5,0,0,1-.371-2.953,4.5,4.5,0,0,0,0-8.719,1.5,1.5,0,1,1,.744-2.906,7.5,7.5,0,0,1,0,14.531A1.5,1.5,0,0,1,24,17.82Z" fill="#d56457"/>
  </g>
</svg>
